<svg xmlns="http://www.w3.org/2000/svg" width="2400" height="1350" viewBox="0 0 2400 1350" role="img" aria-label="Stylized soccer ball with glowing tech-facets">
  <defs>
    <linearGradient id="g0" x1="0" y1="0" x2="1" y2="1">
      <stop offset="0" stop-color="#05070c"/>
      <stop offset="1" stop-color="#0b1020"/>
    </linearGradient>
    <radialGradient id="goldGlow" cx="30%" cy="24%" r="70%">
      <stop offset="0" stop-color="rgba(212,175,55,.26)"/>
      <stop offset="0.55" stop-color="rgba(212,175,55,.08)"/>
      <stop offset="1" stop-color="rgba(212,175,55,0)"/>
    </radialGradient>
    <radialGradient id="blueGlow" cx="80%" cy="18%" r="70%">
      <stop offset="0" stop-color="rgba(255,140,120,.10)"/>
      <stop offset="1" stop-color="rgba(120,180,255,0)"/>
    </radialGradient>
    <filter id="blur" x="-20%" y="-20%" width="140%" height="140%">
      <feGaussianBlur stdDeviation="8"/>
    </filter>
  </defs>

  <rect width="2400" height="1350" fill="url(#g0)"/>
  <rect width="2400" height="1350" fill="url(#goldGlow)"/>
  <rect width="2400" height="1350" fill="url(#blueGlow)"/>

  <g opacity="0.8"><path d="M 1585.3 -94.7 Q 1362.3 427.8 1101.1 1182.7" stroke="rgba(243,210,122,0.133)" stroke-width="2.10" fill="none"/><path d="M 479.9 318.6 Q 1474.7 826.6 2128.7 1435.9" stroke="rgba(243,210,122,0.131)" stroke-width="1.06" fill="none"/><path d="M 2152.9 320.1 Q 1511.5 358.9 931.2 434.9" stroke="rgba(243,210,122,0.122)" stroke-width="2.11" fill="none"/><path d="M 2328.9 287.9 Q 1561.5 494.6 209.7 802.7" stroke="rgba(243,210,122,0.109)" stroke-width="1.28" fill="none"/><path d="M 812.6 631.8 Q 191.8 995.5 316.5 1198.2" stroke="rgba(243,210,122,0.114)" stroke-width="1.56" fill="none"/><path d="M 682.6 225.6 Q 836.6 425.0 428.0 851.4" stroke="rgba(243,210,122,0.111)" stroke-width="1.70" fill="none"/><path d="M 1614.7 1052.8 Q 1177.1 418.1 1017.4 -3.0" stroke="rgba(243,210,122,0.131)" stroke-width="1.61" fill="none"/><path d="M 2159.3 261.5 Q 1441.6 672.9 1451.8 780.6" stroke="rgba(243,210,122,0.070)" stroke-width="1.05" fill="none"/><path d="M 720.4 300.8 Q 640.3 526.9 1222.9 684.4" stroke="rgba(243,210,122,0.105)" stroke-width="2.19" fill="none"/><path d="M 2154.7 143.5 Q 2217.6 785.8 1831.2 1297.9" stroke="rgba(243,210,122,0.114)" stroke-width="1.60" fill="none"/><path d="M 1118.2 341.1 Q 1467.0 560.9 2236.1 448.3" stroke="rgba(243,210,122,0.090)" stroke-width="1.78" fill="none"/><path d="M 2315.7 449.2 Q 957.1 939.0 -13.1 1213.8" stroke="rgba(243,210,122,0.107)" stroke-width="1.39" fill="none"/><path d="M 1812.4 420.2 Q 774.2 110.4 264.2 186.2" stroke="rgba(243,210,122,0.134)" stroke-width="2.04" fill="none"/><path d="M -194.8 1028.9 Q 220.2 443.2 1072.8 297.3" stroke="rgba(243,210,122,0.099)" stroke-width="1.26" fill="none"/></g>
  <g><circle cx="191.1" cy="1247.0" r="4.2" fill="rgba(212,175,55,0.050)"/><circle cx="1273.0" cy="585.6" r="2.9" fill="rgba(212,175,55,0.098)"/><circle cx="702.8" cy="873.5" r="2.6" fill="rgba(212,175,55,0.082)"/><circle cx="2329.5" cy="1070.1" r="5.9" fill="rgba(212,175,55,0.074)"/><circle cx="2190.8" cy="51.7" r="3.3" fill="rgba(212,175,55,0.118)"/><circle cx="87.0" cy="1060.7" r="5.3" fill="rgba(212,175,55,0.081)"/><circle cx="2329.5" cy="615.2" r="4.3" fill="rgba(212,175,55,0.139)"/><circle cx="57.1" cy="1276.8" r="2.6" fill="rgba(212,175,55,0.054)"/><circle cx="1310.5" cy="1212.1" r="2.4" fill="rgba(212,175,55,0.127)"/><circle cx="1171.4" cy="164.4" r="3.3" fill="rgba(212,175,55,0.139)"/><circle cx="1444.9" cy="1144.5" r="2.1" fill="rgba(212,175,55,0.094)"/><circle cx="1897.0" cy="774.3" r="4.2" fill="rgba(212,175,55,0.117)"/><circle cx="844.5" cy="412.3" r="4.4" fill="rgba(212,175,55,0.085)"/><circle cx="37.7" cy="733.8" r="5.9" fill="rgba(212,175,55,0.131)"/><circle cx="1598.9" cy="512.0" r="2.0" fill="rgba(212,175,55,0.074)"/><circle cx="1649.2" cy="674.6" r="3.4" fill="rgba(212,175,55,0.080)"/><circle cx="2385.5" cy="94.2" r="2.7" fill="rgba(212,175,55,0.088)"/><circle cx="1732.7" cy="306.9" r="2.5" fill="rgba(212,175,55,0.096)"/><circle cx="539.0" cy="625.2" r="2.7" fill="rgba(212,175,55,0.114)"/><circle cx="993.0" cy="703.3" r="4.3" fill="rgba(212,175,55,0.053)"/><circle cx="7.0" cy="530.5" r="3.2" fill="rgba(212,175,55,0.131)"/><circle cx="2365.1" cy="519.3" r="3.8" fill="rgba(212,175,55,0.091)"/><circle cx="391.3" cy="52.6" r="2.3" fill="rgba(212,175,55,0.070)"/><circle cx="1190.4" cy="1066.5" r="4.8" fill="rgba(212,175,55,0.120)"/><circle cx="1531.8" cy="861.3" r="2.4" fill="rgba(212,175,55,0.093)"/><circle cx="2291.9" cy="778.8" r="4.7" fill="rgba(212,175,55,0.081)"/><circle cx="2356.4" cy="367.9" r="3.5" fill="rgba(212,175,55,0.097)"/><circle cx="90.0" cy="1058.9" r="5.1" fill="rgba(212,175,55,0.083)"/><circle cx="375.1" cy="654.9" r="2.6" fill="rgba(212,175,55,0.078)"/><circle cx="450.7" cy="774.9" r="3.1" fill="rgba(212,175,55,0.097)"/><circle cx="444.3" cy="545.9" r="5.1" fill="rgba(212,175,55,0.067)"/><circle cx="511.8" cy="978.5" r="2.4" fill="rgba(212,175,55,0.107)"/><circle cx="1160.1" cy="1215.9" r="2.6" fill="rgba(212,175,55,0.109)"/><circle cx="251.6" cy="1084.8" r="5.2" fill="rgba(212,175,55,0.132)"/><circle cx="131.3" cy="1142.6" r="2.9" fill="rgba(212,175,55,0.127)"/><circle cx="520.8" cy="1299.9" r="2.6" fill="rgba(212,175,55,0.129)"/><circle cx="1863.5" cy="112.8" r="3.7" fill="rgba(212,175,55,0.130)"/><circle cx="1192.4" cy="300.1" r="2.8" fill="rgba(212,175,55,0.112)"/></g>

  <g filter="url(#blur)" opacity="0.9">
    <circle cx="1752.0" cy="621.0" r="210" fill="rgba(255,255,255,.04)"/>
  </g>

  <g><circle cx="1752.0" cy="621.0" r="160" fill="none" stroke="rgba(212,175,55,0.180)" stroke-width="1.2"/><circle cx="1752.0" cy="621.0" r="215" fill="none" stroke="rgba(212,175,55,0.150)" stroke-width="1.2"/><circle cx="1752.0" cy="621.0" r="270" fill="none" stroke="rgba(212,175,55,0.120)" stroke-width="1.2"/><circle cx="1752.0" cy="621.0" r="325" fill="none" stroke="rgba(212,175,55,0.090)" stroke-width="1.2"/></g>

  <g>
    <rect x="1562.0" y="555.0" width="380" height="132" rx="26" fill="rgba(255,255,255,.05)" stroke="rgba(255,255,255,.10)"/>
    <text x="1752.0" y="613.0" text-anchor="middle" font-family="ui-sans-serif,system-ui" font-size="50" fill="rgba(245,247,255,.92)" letter-spacing="2">W3</text>
    <text x="1752.0" y="655.0" text-anchor="middle" font-family="ui-sans-serif,system-ui" font-size="22" fill="rgba(245,247,255,.60)" letter-spacing="1">w3.futbol</text>
  </g>

  <g opacity="0.9">
    <circle cx="432.0" cy="1053.0" r="280" fill="rgba(212,175,55,.06)"/>
    <circle cx="432.0" cy="1053.0" r="279" fill="none" stroke="rgba(255,255,255,.06)"/>
  </g>
</svg>